<?xml version="1.0" standalone="no"?>
<!DOCTYPE svg PUBLIC "-//W3C//DTD SVG 20010904//EN"
 "http://www.w3.org/TR/2001/REC-SVG-20010904/DTD/svg10.dtd">
<svg version="1.0" xmlns="http://www.w3.org/2000/svg"
 width="856.000000pt" height="856.000000pt" viewBox="0 0 856.000000 856.000000"
 preserveAspectRatio="xMidYMid meet">
<metadata>
Created by potrace 1.14, written by Peter Selinger 2001-2017
</metadata>
<g transform="translate(0.000000,856.000000) scale(0.100000,-0.100000)"
fill="#000000" stroke="none">
<path d="M4260 8202 c-14 -50 -13 -76 4 -117 l15 -34 -72 26 c-69 24 -137 64
-183 105 -21 19 -21 19 -19 -4 1 -13 3 -32 4 -44 0 -11 17 -39 37 -62 34 -40
34 -42 10 -32 -14 5 -26 8 -26 5 0 -12 -70 22 -107 51 -23 19 -44 34 -48 34
-12 0 -1 -82 15 -108 l17 -27 -76 -15 c-93 -19 -141 -9 -240 52 -36 22 -81 50
-98 60 l-33 20 6 -34 c9 -52 32 -94 65 -122 l31 -27 -43 7 c-74 10 -167 33
-204 49 -19 8 -51 22 -71 31 l-36 15 20 -28 c30 -43 74 -84 100 -94 41 -16 23
-25 -35 -18 -32 4 -84 19 -115 33 -32 14 -58 22 -58 17 0 -21 68 -96 105 -115
l40 -21 -59 -30 c-33 -17 -115 -64 -183 -106 -68 -42 -144 -82 -169 -88 l-47
-12 6 -42 c3 -23 13 -47 22 -53 31 -23 7 -44 -54 -45 -31 -1 -59 -1 -63 0 -5
0 -8 -6 -8 -15 0 -23 64 -84 89 -84 12 0 21 -4 21 -8 0 -15 -123 -81 -180 -97
-88 -25 -86 -24 -59 -43 15 -11 43 -17 77 -17 28 0 52 0 52 -1 0 0 -20 -15
-44 -32 -24 -18 -67 -37 -95 -43 -45 -9 -50 -13 -41 -29 6 -10 19 -21 30 -25
18 -6 18 -8 5 -28 -14 -22 -14 -22 24 -19 33 3 40 1 46 -18 11 -33 -3 -107
-36 -188 -40 -100 -68 -214 -93 -382 -3 -19 -7 -44 -10 -55 -2 -11 -7 -47 -10
-80 -13 -113 -17 -150 -21 -165 -2 -8 -7 -55 -10 -105 -4 -49 -8 -106 -10
-125 -2 -19 -7 -96 -10 -170 -5 -118 -4 -131 8 -105 10 23 15 26 22 15 5 -8
10 -21 11 -30 19 -179 24 -264 29 -467 2 -90 7 -168 10 -173 4 -7 -7 -8 -32
-4 -47 7 -75 -13 -151 -109 -89 -112 -123 -211 -125 -367 -4 -327 128 -561
322 -566 55 -2 99 11 131 38 19 17 20 15 37 -77 34 -191 148 -526 220 -649 41
-71 144 -216 188 -265 16 -18 41 -45 54 -60 53 -59 134 -142 145 -149 6 -4 22
-20 34 -36 12 -16 22 -25 22 -20 0 4 18 -11 40 -34 22 -22 40 -38 40 -34 1 4
8 -2 18 -13 20 -24 193 -154 277 -209 58 -37 263 -156 270 -156 2 0 32 -13 67
-29 158 -71 289 -111 421 -128 26 -3 47 -9 48 -12 0 -3 3 -26 5 -51 2 -25 6
-51 9 -58 3 -7 -22 -25 -64 -46 -37 -18 -76 -40 -87 -49 -10 -8 -53 -43 -95
-76 -199 -158 -461 -475 -794 -962 -159 -233 -256 -363 -316 -423 -33 -32 -59
-63 -59 -68 0 -13 48 -59 92 -89 l36 -25 -53 -107 -54 -107 1224 0 1223 0 7
43 c12 77 9 74 84 75 73 1 214 32 258 57 l28 15 -35 -5 c-19 -2 -66 -11 -105
-19 -38 -9 -102 -15 -142 -16 l-71 0 4 42 c3 24 7 52 9 63 2 11 4 42 4 69 1
62 7 57 15 -14 4 -30 11 -59 16 -64 13 -13 13 -16 6 199 -2 33 -8 70 -14 81
-10 19 -8 24 11 37 23 15 82 34 102 32 31 -1 76 -30 81 -51 8 -30 40 -32 47
-4 3 13 -3 31 -18 47 -20 25 -29 27 -91 27 -41 -1 -85 -7 -106 -17 l-38 -16
-1 62 c-1 34 -3 71 -4 82 -29 250 -80 442 -156 585 -132 248 -516 679 -563
632 -3 -3 -6 32 -6 77 0 57 4 83 13 85 215 64 412 150 572 250 200 125 401
307 655 592 151 169 226 312 328 624 22 69 43 136 46 150 5 25 7 32 26 105 16
62 20 77 26 115 4 19 8 42 9 50 2 8 4 20 4 25 1 6 10 -4 21 -22 32 -53 81 -69
164 -52 201 42 350 327 341 654 -3 129 -19 194 -59 256 -38 56 -114 129 -152
145 -33 14 -49 14 -105 -1 -26 -6 -26 -6 -21 37 16 108 5 945 -13 1093 -2 17
-7 65 -10 107 -3 43 -8 86 -9 95 -4 17 -13 77 -22 138 -3 17 -12 55 -21 85
-19 67 -19 57 1 155 26 124 26 226 1 331 -3 14 -15 24 -33 27 -35 7 -66 71
-88 182 -4 22 -8 42 -9 45 -1 3 -5 22 -9 43 -9 42 -11 44 -53 51 -49 9 -73 26
-159 111 -99 99 -172 156 -292 227 -76 47 -287 145 -326 152 -6 2 -42 13 -81
25 -63 20 -210 56 -275 67 -14 2 -36 6 -50 9 -14 3 -47 7 -75 11 -27 3 -59 8
-70 10 -11 2 -54 7 -95 10 -41 4 -86 8 -100 10 -14 1 -29 3 -35 3 -5 1 4 9 20
20 41 24 67 66 67 107 0 55 -10 57 -54 13 -33 -34 -111 -79 -136 -79 -3 0 5
11 18 25 23 25 37 99 20 110 -4 3 -19 -7 -32 -22 -30 -37 -91 -83 -152 -116
-27 -15 -50 -27 -52 -27 -2 0 0 10 5 23 13 34 -3 92 -32 115 -13 11 -20 4 -50
-45 -54 -88 -72 -106 -99 -97 -53 16 -124 77 -183 157 -30 41 -43 41 -55 -1z"/>
<path d="M5730 520 c0 -5 5 -10 10 -10 6 0 10 5 10 10 0 6 -4 10 -10 10 -5 0
-10 -4 -10 -10z"/>
<path d="M5728 413 c-5 -74 3 -173 13 -173 12 0 12 207 0 215 -6 3 -11 -16
-13 -42z"/>
<path d="M5788 437 c-11 -28 -2 -191 10 -195 7 -2 27 27 48 73 19 43 36 76 39
74 2 -2 6 -31 8 -64 3 -33 8 -68 12 -77 11 -27 28 -10 20 20 -3 14 -8 60 -11
101 -2 41 -7 77 -9 80 -9 9 -28 -17 -61 -86 l-33 -68 0 72 c-1 66 -12 101 -23
70z"/>
<path d="M5955 399 c-20 -59 -14 -108 16 -135 36 -32 95 -28 118 8 14 22 14
22 -13 4 -63 -41 -121 12 -106 96 12 61 21 61 22 -2 1 -3 -3 -18 -6 -35 -7
-28 -6 -29 10 -13 17 17 24 94 10 117 -15 24 -35 9 -51 -40z"/>
</g>
</svg>
